# xmcd CD database file
#
# Track frame offsets:
#	150
#	52408
#	90993
#	122173
#	161913
#	192810
#	234300
#	258043
#	291128
#	317463
#
# Disc length: 4577 seconds
#
# Revision: 0
# Processed by: cddbd v1.5.2PL0 Copyright (c) Steve Scherf et al.
# Submitted via: CDex 1.50beta10
#
DISCID=8311df0a
DTITLE=Prem Joshua - The Collection
DYEAR=1900
DGENRE=New Age
TTITLE0=Water Down the Ganges
TTITLE1=Trust
TTITLE2=Ganga Pooja
TTITLE3=Nisha
TTITLE4=Govind Bolo Hari
TTITLE5=Mangalam
TTITLE6=Lahore Connection
TTITLE7=Shiva Moon - Cresent Moon Mudra
TTITLE8=Darbari N/Y/C (The Merging Mudra)
TTITLE9=Road to Solaia (The Heart Mudra)
EXTD=
EXTT0=
EXTT1=
EXTT2=
EXTT3=
EXTT4=
EXTT5=
EXTT6=
EXTT7=
EXTT8=
EXTT9=
PLAYORDER=
